<?xml version="1.0" encoding="utf-8"?>
<!-- Generator: Adobe Illustrator 24.1.1, SVG Export Plug-In . SVG Version: 6.00 Build 0)  -->
<svg version="1.1" id="Layer_1" xmlns="http://www.w3.org/2000/svg" xmlns:xlink="http://www.w3.org/1999/xlink" x="0px" y="0px"
	 viewBox="0 0 234.2 144.9" style="enable-background:new 0 0 234.2 144.9;" xml:space="preserve">
<style type="text/css">
	.st0{fill:none;}
	.st1{fill:#F2F2F2;}
</style>
<g>
	<path class="st0" d="M28.3,89.9L27,98.4h21.5l-2.2-14.8c-4,1.3-8,2.6-12,4C32.4,88.4,30.4,89.1,28.3,89.9z"/>
	<path class="st0" d="M132.6,36.5c0-10.1-3.4-14.6-11.3-14.6h-10.7V56c4.8-0.5,9.6-0.9,14.4-1.3c2.5-0.2,5-0.3,7.5-0.4
		c0.2-1.2,0.2-2.5,0.2-3.9L132.6,36.5L132.6,36.5z"/>
	<path class="st0" d="M37.6,26.7l-7.1,48.4c4.6-1.9,9.2-3.5,13.9-5.1L38,26.7H37.6z"/>
	<path class="st1" d="M49.3,82.7c-1,0.3-1.9,0.6-2.9,0.9l2.2,14.8H27.1l1.3-8.5c-7.3,2.8-14.4,5.8-21.3,9.3L0,143.4h20.5l3.8-25.7
		h27.3l3.8,25.7h22.5L67.4,77.7c-1,0.3-2,0.5-3.1,0.8C59.3,79.7,54.2,81.2,49.3,82.7z"/>
	<path class="st1" d="M29.7,75.4c0.3-0.1,0.5-0.2,0.8-0.3l7.1-48.4H38L44.4,70c0.2-0.1,0.5-0.2,0.7-0.3c5.2-1.7,10.4-3.2,15.7-4.7
		c1.5-0.4,2.9-0.8,4.4-1.1l-10-62.3H22.6L9.2,85.2c1.8-1,3.7-2,5.5-2.9C19.7,79.8,24.7,77.5,29.7,75.4z"/>
	<path class="st1" d="M110.5,21.9h10.7c7.9,0,11.3,4.5,11.3,14.6v14c0,1.4-0.1,2.7-0.2,3.9c7.3-0.3,14.6-0.4,21.8-0.3
		c0.4-2.6,0.7-5.5,0.7-8.6V34.2c0-21.9-9.9-32.6-33-32.6H88.2v57.5c7.4-1.3,14.8-2.3,22.3-3.1C110.5,56,110.5,21.9,110.5,21.9z"/>
	<path class="st1" d="M88.2,72.7v70.7h22.3V85.7h7.7c10.1,0,14.6,4.9,14.6,18V126c0,11.5,0.8,13.8,2,17.4h22.7
		c-2.2-5.3-2.4-10.3-2.4-17.2v-21.9c0-14.8-3.6-25.3-14.8-30v-0.4c5.6-2.6,9.5-6.7,11.8-12.4c-8.7,1.2-17.4,2.5-26,3.9
		C113.4,67.6,100.8,69.9,88.2,72.7z"/>
	<path class="st1" d="M234.2,49.4V35.6C234.2,12.9,222.9,0,201,0s-33.2,13-33.2,35.6v18.9c7.2,0.4,14.4,1.1,21.6,2.1
		c-5.3,0.8-10.7,1.5-16,2.1c-1.9,0.3-3.7,0.5-5.6,0.7v49.9c0,22.7,11.3,35.6,33.2,35.6s33.2-13,33.2-35.6V90.5h-21.1v20.3
		c0,10.1-4.5,13.8-11.5,13.8c-7.1,0-11.5-3.6-11.5-13.8V34.2c0-10.1,4.5-14,11.5-14c7.1,0,11.5,3.8,11.5,14v15.2
		C213.1,49.4,234.2,49.4,234.2,49.4z"/>
</g>
</svg>
