<svg id="Layer_1" data-name="Layer 1" xmlns="http://www.w3.org/2000/svg" viewBox="0 0 63.68 68.7"><defs><style>.cls-1{fill:#3c3b3a;}.cls-2,.cls-3{isolation:isolate;}.cls-3{font-size:17px;fill:#26a682;font-family:Raleway-Regular, Raleway;}.cls-4{letter-spacing:-0.02em;}</style></defs><path id="Icon_awesome-bowling-ball" data-name="Icon awesome-bowling-ball" class="cls-1" d="M33.84.51A19.35,19.35,0,1,0,53.19,19.86,19.34,19.34,0,0,0,33.84.51Zm-10,14.36a2.5,2.5,0,1,1,2.5-2.5,2.5,2.5,0,0,1-2.5,2.5Zm5-7.49a2.5,2.5,0,1,1,2.5,2.5h0a2.51,2.51,0,0,1-2.5-2.49ZM32.6,18.61a2.5,2.5,0,1,1,2.5-2.5,2.5,2.5,0,0,1-2.5,2.5Z" transform="translate(-0.07 -0.51)"/><g id="Bowling-2" class="cls-2"><text class="cls-3" transform="translate(0 64.91)">B<tspan class="cls-4" x="11.32" y="0">o</tspan><tspan x="21.11" y="0">wling</tspan></text></g></svg>