<svg id="Layer_1" data-name="Layer 1" xmlns="http://www.w3.org/2000/svg" viewBox="0 0 98.36 63.7"><defs><style>.cls-1{fill:#3c3b3a;}.cls-2,.cls-3{isolation:isolate;}.cls-3{font-size:17px;fill:#26a682;font-family:Raleway-Regular, Raleway;}.cls-4{letter-spacing:-0.02em;}</style></defs><path id="Icon_awesome-basketball-ball" data-name="Icon awesome-basketball-ball" class="cls-1" d="M48.43.47a19.18,19.18,0,0,0-9.53,4.2l6,6A17.36,17.36,0,0,0,48.43.47ZM51.21,17,63.53,4.66A19.26,19.26,0,0,0,52.18.29,21,21,0,0,1,47.6,13.37Zm-15-9.66A19.27,19.27,0,0,0,32,16.85a17.36,17.36,0,0,0,10.24-3.5ZM57.48,23.25a21.07,21.07,0,0,1,13.08-4.58A19.26,19.26,0,0,0,66.19,7.32L53.87,19.63Zm-6.27-1L38.9,34.6A19.27,19.27,0,0,0,50.25,39,21.07,21.07,0,0,1,54.83,25.9Zm15,9.66a19.27,19.27,0,0,0,4.2-9.53,17.43,17.43,0,0,0-10.24,3.5ZM45,16A21,21,0,0,1,31.87,20.6,19.26,19.26,0,0,0,36.24,32L48.57,19.63ZM54,38.8a19.18,19.18,0,0,0,9.53-4.2l-6-6A17.43,17.43,0,0,0,54,38.8Z" transform="translate(0.31 -0.29)"/><g id="Indoor_Court" data-name="Indoor Court" class="cls-2"><text class="cls-3" transform="translate(0 59.91)">Indoo<tspan class="cls-4" x="44.93" y="0">r</tspan><tspan x="50.49" y="0" xml:space="preserve"> Court</tspan></text></g></svg>