<svg id="Layer_1" data-name="Layer 1" xmlns="http://www.w3.org/2000/svg" viewBox="0 0 112.81 62.62"><defs><style>.cls-1{fill:#3c3b3a;}.cls-2,.cls-3{isolation:isolate;}.cls-3{font-size:17px;fill:#26a682;font-family:Raleway-Regular, Raleway;}.cls-4{letter-spacing:0em;}.cls-5{letter-spacing:-0.01em;}.cls-6{letter-spacing:-0.02em;}</style></defs><path id="Icon_map-gym" data-name="Icon map-gym" class="cls-1" d="M52.32,34.49a.8.8,0,0,1,0,1.13h0l-1.74,1.62a.8.8,0,0,1-1.13,0L39.31,26.31a.8.8,0,0,1,0-1.13h0l1.73-1.62a.8.8,0,0,1,1.13,0ZM65.21,14a.8.8,0,0,1,0,1.13h0L54.25,25.33a.8.8,0,0,1-1.13,0l-2.61-2.81a.8.8,0,0,1,0-1.13h0l10.92-10.2a.79.79,0,0,1,1.12,0L65.21,14ZM56,31a.8.8,0,0,1,0,1.13h0l-1.74,1.62a.79.79,0,0,1-1.12,0L43,22.84a.79.79,0,0,1,0-1.13h0l1.73-1.62a.8.8,0,0,1,1.13,0ZM72.86,14.39a.8.8,0,0,1,0,1.13h0l-1.74,1.62a.8.8,0,0,1-1.13,0L59.85,6.22a.8.8,0,0,1,0-1.13h0l1.74-1.63a.81.81,0,0,1,1.13,0Zm3.71-3.47a.8.8,0,0,1,0,1.13l-1.74,1.63a.8.8,0,0,1-1.12,0L63.57,2.74a.8.8,0,0,1,0-1.13L65.34,0a.79.79,0,0,1,1.13,0h0Z" transform="translate(0.88 0.23)"/><g id="Fitness_Center" data-name="Fitness Center" class="cls-2"><text class="cls-3" transform="translate(0 58.82)">Fitness Ce<tspan class="cls-4" x="81.84" y="0">n</tspan><tspan class="cls-5" x="91.66" y="0">t</tspan><tspan x="97.14" y="0">e</tspan><tspan class="cls-6" x="107.12" y="0">r</tspan></text></g></svg>