<svg id="Layer_1" data-name="Layer 1" xmlns="http://www.w3.org/2000/svg" viewBox="0 0 113.86 68.71"><defs><style>.cls-1{fill:#3c3b3a;}.cls-2,.cls-3{isolation:isolate;}.cls-3{font-size:17px;fill:#26a682;font-family:Raleway-Regular, Raleway;}.cls-4{letter-spacing:-0.01em;}</style></defs><path id="Icon_map-climbing" data-name="Icon map-climbing" class="cls-1" d="M45,16.72a4,4,0,0,0-.42,1.81l.16,9.68-3.36,7.21a2.18,2.18,0,1,0,3.83,2.1l3.7-7.88a2.48,2.48,0,0,0,.17-.59l0-.3,0-6,5.68,2.47.91,5.85a2.19,2.19,0,0,0,4.3-.15,2.4,2.4,0,0,0,0-.6l-1.12-7a2.21,2.21,0,0,0-1.23-1.57l-5.07-2.25,3.23-5.6,1.6,2a1.58,1.58,0,0,0,.62.43l6.11,1.78a1.72,1.72,0,0,0,1-3.27l-.09,0-5.3-1.55-4-4.78a4,4,0,0,0-2.32-1.23,4,4,0,0,0-4,1.84ZM62.49,30.61l-.38,2.9L51.6,36.06l.1,1.79H77.33A1.62,1.62,0,0,0,79,36.23h0l0-34.41L75.43,1l-2,9L70,11.46l-3,8.34,2.84,6.38-.8,2.45ZM55.36,6.82a3.26,3.26,0,1,0-3.28-3.26A3.25,3.25,0,0,0,55.36,6.82Zm-6.51.51a.92.92,0,0,0-.35-1.26h0l-1.58-.92a1,1,0,0,0-1.29.35l-4.88,8.39a.92.92,0,0,0,.34,1.26h0l1.59.91A.92.92,0,0,0,44,15.72Z" transform="translate(0.74 -0.31)"/><g id="Rock_Climbing" data-name="Rock Climbing" class="cls-2"><text class="cls-3" transform="translate(0 64.91)"><tspan class="cls-4">R</tspan><tspan x="10.85" y="0">ock Climbing</tspan></text></g></svg>